<svg xmlns="http://www.w3.org/2000/svg" id="Layer_1" baseProfile="basic" xmlns:xlink="http://www.w3.org/1999/xlink" viewBox="0 0 317.9 96.2">
  <style>
    .st0{fill:#985EA6;} .st1{fill:#F68922;} .st2{fill:#04B1C1;} .st3{fill:#EB503D;} .st4{clip-path:url(#SVGID_2_);} .st5{clip-path:url(#SVGID_4_);fill:#68BD45;} .st6{fill:#02A2D3;} .st7{fill:none;} .st8{fill:#4B4B4B;} .st9{clip-path:url(#SVGID_6_);} .st10{clip-path:url(#SVGID_8_);fill:#4B4B4B;}
  </style>
  <path d="M75.1 19.8c-.7-.7-1.4-1.3-2.1-2-6.2-5.6-14.4-9-22.8-9.8-9-.8-18.3 1.5-25.8 6.6-5.8 4-10.5 9.4-13.6 15.7C7 38.5 6 47.9 8.1 56.6c1 4.1 2.6 8.1 4.9 11.7 1.1 1.7 2.2 3.3 3.5 4.9.9 1 1.9 2.5 3.5 1.9 1.5-.6 1.5-2.4.5-3.5-1.3-1.4-2.5-2.8-3.6-4.4-2.4-3.4-4.2-7.2-5.3-11.1C9.1 47.5 10.1 38 14.1 30c3.2-6.4 8.3-11.8 14.5-15.5C36.5 9.8 46 8.3 55 9.9c4.2.8 8.2 2.3 11.9 4.3 3.2 1.8 6 4.1 8.6 6.6.3.3.4-.2.2-.4l-.6-.6z" class="st0"/>
  <path d="M73.8 30.9c-.3-.5-.7-1-1-1.5-3.2-5-8.1-8.9-13.5-11.3-5.7-2.5-11.9-3.3-18-2.4-4.5.7-8.7 2.4-12.5 4.9-1.3.8-2.5 1.7-3.6 2.7-1.5 1.4-3.1 2.9-4.3 4.6-1.5 2.2-2.9 4.4-3.9 6.8-1.2 2.9-2 6-2.3 9.1-.4 3-.2 6 .3 9 .5 2.9 1.3 5.8 2.7 8.4.3.6.6 1.3 1 1.9.2.3.3.6.5.9.8.8 2.1.9 2.9.1 1.8-1.6-.5-4-1.2-5.5-1.3-2.8-2.3-5.7-2.6-8.8-.2-1.5-.3-3-.3-4.5s.2-3.1.5-4.6c.8-4.9 3.1-9.3 6.1-13.1 1.2-1.6 2.7-2.9 4.3-4.2.9-.8 2-1.6 3-2.1 2.8-1.5 6.1-3 9.4-3.7 6.3-1.3 13.2-.7 19 2.2 2.7 1.3 5.5 2.9 7.7 5.1 1.2 1.1 2.3 2.3 3.3 3.5.8.9 1.5 2 2.2 3.1.2.3.5 0 .4-.3 0-.1-.1-.2-.1-.3z" class="st1"/>
  <path d="M70.4 42c-1-5.4-4.2-10.5-8.5-13.9-4.6-3.7-10.3-5.5-16.1-5.4-9 .2-17.4 5.7-21.3 13.8-1.2 2.6-2.1 5.3-2.4 8.2-.1 1.3-.2 2.5-.1 3.8 0 .9-.1 1.9.5 2.6.7.8 1.9 1 2.8.3.7-.5.9-1.3.8-2.2-.1-1.3-.2-2.5-.2-3.8 0-1.4.3-2.7.5-4 1.2-5.5 4.8-10 9.4-13.1 3.2-2.1 7.2-3.2 11.1-3.4 5.8-.2 11.5 1.9 15.8 5.7 2.1 1.9 3.7 4.1 5 6.5 1.2 2.2 1.8 4.6 2.3 7.1.1.3.4.3.6.1.1-.1 0-.3 0-.4 0-.6-.1-1.3-.2-1.9z" class="st2"/>
  <path d="M59.8 37.3c-4.5-6.5-13.5-8.6-20.5-5.1-2.8 1.4-5.2 3.6-6.8 6.3-2.1 3.4-2.8 7.4-2.3 11.3.2 1.8.8 3.7 1.6 5.3.6 1.1 1.2 2.7 2.7 2.6 1.5 0 2.5-1.7 1.8-3-.3-.5-.7-1-1-1.6-.4-.8-.8-1.6-1.1-2.4-2.1-6 .3-12.9 5.7-16.2 3.4-2.1 7.5-2.8 11.4-1.8 1.8.4 3.6 1.3 5.1 2.4 1.4.9 2.4 2.2 3.5 3.4.3.3.6-.1.5-.4-.1-.3-.4-.6-.6-.8z" class="st3"/>
  <defs>
    <path id="SVGID_1_" d="M0 0h66.4v90.5H0z"/>
  </defs>
  <clipPath id="SVGID_2_">
    <use xlink:href="#SVGID_1_" overflow="visible"/>
  </clipPath>
  <g class="st4">
    <defs>
      <path id="SVGID_3_" d="M0-.6h67v92H0z"/>
    </defs>
    <clipPath id="SVGID_4_">
      <use xlink:href="#SVGID_3_" overflow="visible"/>
    </clipPath>
    <path d="M12.5 17.8C19 9.7 28.1 4.2 38.1 1.9 43 .8 48.2.5 53.3 1c4.5.5 8.7 1.7 12.9 3.3.3.1.2-.2.1-.3l-.2-.1c-.4-.2-.8-.3-1.2-.5-1-.4-2.1-.8-3.2-1.2-9.8-3.1-20.5-3.1-30.2.3-9.7 3.5-18 10-23.7 18.5-5.3 7.9-8 17.6-7.7 27.1.3 10.3 4.1 20.4 10.5 28.4 3.1 3.8 6.8 7.2 10.9 9.9 1.9 1.2 3.9 2.4 5.9 3.3.6.3 1.2.7 1.8.7.9.1 1.9-.5 2.2-1.4.3-.9 0-1.8-.8-2.4-.5-.4-1.3-.6-1.9-.9-2-.9-4-2-5.9-3.2-4.1-2.7-7.8-6.1-10.9-9.9-6.4-8.2-9.8-18.6-9.3-29 .5-9.2 4-18.5 9.9-25.8z" class="st5"/>
  </g>
  <path d="M47.3 54.2L46.1 58v.1L40.6 76c-.1.3.1.7.5.6 0 0 5.4-1.4 6.8-1.6 1.4-.2 2.6-.3 3.7-.3 6 0 8.5 2.3 7.4 6.8-1.1 4.7-4.6 7.1-10.4 7.1-1.9 0-3.9-.3-5.9-.8l-1-.3c-2.3-.7-4.7.6-5.3 2.9v.1c-.5 2.1.7 4.3 2.9 4.9 2.2.6 4.8.9 7.9.9 5.7 0 10.5-1.3 14.2-4 3.7-2.7 6.2-6.5 7.4-11.5 1-4.2.5-7.5-1.5-10-2-2.4-5.2-3.6-9.5-3.6-1.8 0-3.4.1-4.7.4l-1.1.2 2.7-7.9c.2-.5.7-.9 1.2-.9h14.7c.2-1.8.5-3.7 1-5.8.2-.8.4-1.5.6-2.2H51.8c-2.1-.1-3.9 1.2-4.5 3.2zm61.8-22.8c-2.1-.5-4.3-.7-6.6-.7-7.3 0-13.6 2-18.7 6.1-5.1 4-8.5 9.7-10.2 16.9-1.8 7.4-1.3 13.1 1.3 17.1 2.6 4 7.3 5.9 14.1 5.9 2.7 0 5.3-.2 7.9-.6 1.2-.2 3.1-.6 4.9-1 2.3-.5 4.1-2.3 4.6-4.6l2.9-12.4s0-.1.1-.1l.8-3.2c.5-1.9-1-3.7-3-3.7H86.7c-.4 1.1-.8 2.2-1.1 3.4-.3 1.5-.6 3-.6 4.4h12.9c1.1 0 1.9 1 1.6 2l-1.4 5.9c-.2.9-.9 1.5-1.8 1.6-1.6.2-3.2.4-4.7.4-3.8 0-6.4-1.3-7.8-3.8-1.4-2.6-1.5-6.3-.4-11.1 1.1-4.6 3.2-8.3 6.3-11.1 3.1-2.8 6.7-4.1 10.9-4.1 2.4 0 4.6.4 6.7 1.1 2.2.8 4.7-.3 5.4-2.8.6-2.6-1.1-5.1-3.6-5.6z" class="st6"/>
  <path d="M131.7 56.9c-.5-.4-1.6-.9-4.2-.9h-5.1l-1.5 6.4h4.8c1.7 0 3.2-.3 4.3-1 1.1-.6 1.7-1.4 2-2.6.3-1.3-.2-1.8-.3-1.9z" class="st7"/>
  <path d="M128.6 50.9h-7.9c-.7 0-1.3.2-1.9.7-.6.5-.9 1-1.1 1.7L112.8 74c-.2 1 .1 1.6.4 2 .3.4.9.9 1.9.9.7 0 1.3-.2 1.9-.7.6-.4.9-1 1.1-1.7l1.7-7h6.2c1.3 0 1.8.3 2.1.5.4.4.7.8.8 1.5.1.5.1 1.5-.3 3.5l-.2 1c-.2 1 .1 1.6.4 2 .3.4.9.9 1.9.9.7 0 1.4-.2 1.9-.7.6-.4.9-1 1.1-1.7l.4-1.6c.4-1.6.5-3.2.3-4.6-.2-1.5-.8-2.5-1.4-3.2.9-.5 1.7-1.2 2.4-1.9 1.1-1.3 1.9-2.7 2.2-4.1.6-2.4.1-4.4-1.3-5.9-1.9-1.5-4.3-2.3-7.7-2.3zm3.4 8c-.3 1.1-.9 2-2 2.6-1.2.6-2.6 1-4.3 1h-4.8l1.5-6.4h5.1c2.6 0 3.7.5 4.2.9.1 0 .6.5.3 1.9z" class="st8"/>
  <path d="M155.3 55.7c-2.5 0-4.6.8-6.4 2.4-1.8 1.6-3 3.6-3.5 6-.6 2.4-.4 4.3.6 5.7 1 1.5 2.6 2.2 5 2.2 2.5 0 4.6-.8 6.4-2.4 1.8-1.6 3-3.6 3.5-6 .6-2.4.4-4.3-.6-5.8-1-1.4-2.7-2.1-5-2.1z" class="st7"/>
  <path d="M155.9 50.6c-3.9 0-7.3 1.2-10.2 3.7-2.9 2.4-4.8 5.5-5.7 9.3-.9 3.9-.4 7.1 1.4 9.6 1.8 2.6 4.8 3.9 8.7 3.9 3.8 0 7.2-1.2 10.2-3.7 2.8-2.4 4.7-5.5 5.7-9.4.8-3.9.3-7.1-1.4-9.6-1.8-2.5-4.7-3.8-8.7-3.8zm4.9 13c-.6 2.4-1.8 4.5-3.5 6-1.8 1.6-3.9 2.4-6.4 2.4-2.4 0-4-.7-5-2.2-1-1.5-1.2-3.3-.6-5.7.6-2.5 1.8-4.5 3.5-6 1.8-1.6 3.9-2.4 6.4-2.4 2.4 0 4 .7 5 2.2 1 1.4 1.2 3.3.6 5.7zm33.3-12.9c-.7 0-1.3.2-1.9.7-.6.5-.9 1-1.1 1.7l-3.6 15.2-7.3-15.9v-.1c-.6-1-1.5-1.6-2.6-1.6h-.4c-.9 0-1.7.3-2.4.9-.7.6-1.2 1.3-1.4 2.2L168.6 74c-.2 1 .1 1.6.4 2 .3.4.9.9 1.9.9.7 0 1.3-.2 1.9-.7.6-.4.9-1 1.1-1.7l3.6-15.2 7.4 16.1c.5 1 1.4 1.5 2.6 1.5h.4c.9 0 1.7-.3 2.4-.9.7-.6 1.2-1.3 1.4-2.2l4.8-20.2c.2-1-.1-1.6-.4-2-.5-.5-1.2-.9-2-.9zm11.8 0c-.7 0-1.3.2-1.9.7-.6.5-.9 1-1.1 1.7l-4.9 21c-.2 1 .1 1.6.4 2 .3.4.9.9 1.9.9.7 0 1.3-.2 1.9-.7.6-.4.9-1 1.1-1.7l4.9-20.9c.2-.9-.1-1.6-.4-2-.5-.6-1.2-1-1.9-1zm29.3 0c-.7 0-1.3.2-1.9.7-.6.5-.9 1-1.1 1.7l-3.6 15.2-7.3-15.9v-.1c-.6-1-1.5-1.6-2.6-1.6h-.4c-.9 0-1.7.3-2.4.9-.7.6-1.2 1.3-1.4 2.2L209.7 74c-.2 1 .1 1.6.4 2 .3.4.9.9 1.9.9.7 0 1.3-.2 1.9-.7.6-.4.9-1 1.1-1.7l3.6-15.2 7.4 16.1c.5 1 1.4 1.5 2.6 1.5h.4c.9 0 1.7-.3 2.4-.9.7-.6 1.2-1.3 1.4-2.2l4.8-20.2c.2-1-.1-1.6-.4-2-.6-.5-1.2-.9-2-.9zm29.2 2.5c-1-.7-2.1-1.4-3.4-1.9-1.3-.5-3.1-.8-5.1-.8-3.6 0-7 1.2-9.9 3.6-3 2.5-5 5.7-5.9 9.5-.9 3.9-.4 7.1 1.4 9.6 1.9 2.5 4.8 3.8 8.7 3.8 2.8 0 5.7-.7 8.7-2 .6-.2 1.1-.6 1.5-1.1.4-.5.7-1.1.9-1.7l1.8-7.7c.2-1-.1-1.7-.4-2.1-.3-.4-.9-.9-1.9-.9h-6.7c-.6 0-1.2.2-1.8.7-.5.4-.9 1-1 1.6-.2.9.1 1.5.4 1.9.4.5 1 .8 1.8.8h4.2l-1 4.3c-1.8.8-3.6 1.2-5.3 1.2-2.5 0-4.2-.7-5.3-2.2-1-1.5-1.3-3.3-.7-5.7.6-2.7 1.9-4.7 3.8-6.2 1.9-1.4 3.9-2.1 6.3-2.1 2 0 3.9.6 5.7 1.8.4.2.8.3 1.4.3.6 0 1.2-.2 1.7-.7.5-.4.8-1 1-1.7.1-1-.2-1.8-.9-2.3zm23.4-2.3h-13.6c-.7 0-1.3.2-1.9.7-.6.5-.9 1-1.1 1.7l-4.9 20.6c-.2 1 .1 1.6.4 2 .3.4.9.9 1.9.9h13.6c.7 0 1.3-.2 1.8-.6.5-.4.9-1 1.1-1.6.2-.9-.1-1.6-.4-2-.3-.4-.9-.9-1.8-.9h-10.7l1.3-5.3h10c.7 0 1.3-.2 1.8-.6.5-.4.9-1 1.1-1.6.2-.9-.1-1.6-.4-2-.3-.4-.9-.9-1.8-.9h-9.4L276 56h11.2c.7 0 1.3-.2 1.8-.6.5-.4.9-1 1.1-1.6.2-.9-.1-1.6-.4-2-.4-.4-.9-.9-1.9-.9z" class="st8"/>
  <defs>
    <path id="SVGID_5_" d="M290 50.7h27.9v26.2H290z"/>
  </defs>
  <clipPath id="SVGID_6_">
    <use xlink:href="#SVGID_5_" overflow="visible"/>
  </clipPath>
  <g class="st9">
    <defs>
      <path id="SVGID_7_" d="M289 50.4h29v27h-29z"/>
    </defs>
    <clipPath id="SVGID_8_">
      <use xlink:href="#SVGID_7_" overflow="visible"/>
    </clipPath>
    <path d="M292.3 76.9c.7 0 1.3-.2 1.9-.7.6-.5.9-1 1.1-1.7l3.6-15.2 7.4 16.1c.5 1 1.4 1.5 2.6 1.5h.4c.9 0 1.7-.3 2.4-.9.7-.6 1.2-1.3 1.4-2.2l4.8-20.2c.2-1-.1-1.6-.4-2-.4-.6-1.1-.9-1.9-.9-.7 0-1.3.2-1.9.7-.6.5-.9 1-1.1 1.7L309 68.3l-7.3-15.9v-.1c-.6-1-1.5-1.6-2.6-1.6h-.4c-.9 0-1.7.3-2.4.9-.7.6-1.2 1.3-1.4 2.2L290.1 74c-.2 1 .1 1.6.4 2 .2.5.8.9 1.8.9z" class="st10"/>
  </g>
</svg>
