<svg xmlns="http://www.w3.org/2000/svg" xml:space="preserve" style="enable-background:new 0 0 453.5 396.7" viewBox="0 0 453.5 396.7"><path d="M20.9 334.9c.1 2.9-.9 5.6-2.9 7.7-2 1.9-4.7 3-7.4 2.9-5.5.2-10.2-4-10.4-9.5v-15h5v14.2c-.1 1.5.5 2.9 1.5 4 1 1 2.4 1.5 3.9 1.5 1.4 0 2.8-.5 3.8-1.5 1-1.1 1.6-2.5 1.5-4V321H21l-.1 13.9zM46.5 323.1c1.6 1.9 2.5 4.4 2.4 6.9v14.9h-5.1v-14.3c.1-1.5-.5-2.9-1.4-4-1-1-2.4-1.6-3.8-1.5-1.5 0-2.9.5-3.9 1.6s-1.6 2.5-1.5 4v14.2h-5.1V321h4.8v2.4c1.8-2 4.5-3 7.2-2.9 2.4-.1 4.8.8 6.4 2.6zM61 309.7c.7.6 1 1.5 1 2.4 0 .9-.3 1.8-1 2.4-.6.6-1.5 1-2.4 1-.9 0-1.8-.3-2.5-1-.7-.6-1-1.5-1-2.4 0-.9.3-1.8 1-2.4.7-.7 1.6-1 2.5-1 .9 0 1.8.4 2.4 1zm.2 35.2H56V321h5.1l.1 23.9zM90.6 321l-11.5 24.4h-1.8L65.8 321h5.4l7 15.8 7-15.8h5.4zM115.8 334.6H98c.2 1.8 1.2 3.5 2.6 4.6 1.5 1.1 3.3 1.7 5.2 1.6 2.6 0 5.1-1 7-2.8l2.4 3.5c-2.5 2.5-6 3.9-9.5 3.8-3.4.1-6.7-1.2-9.2-3.6-2.4-2.3-3.7-5.5-3.6-8.9-.1-3.3 1.2-6.5 3.6-8.9 2.3-2.4 5.5-3.7 8.8-3.6 3-.1 5.8 1 7.9 3.1 2.1 2.1 3.2 4.9 3.1 7.8-.1 1.3-.2 2.4-.5 3.4zm-15.3-8.2c-1.3 1.1-2.1 2.6-2.5 4.3h13c0-1.6-.6-3.2-1.8-4.3-1.2-1.1-2.7-1.6-4.3-1.6-1.6 0-3.1.6-4.4 1.6zM135.7 321v4.5h-1.5c-1.8-.1-3.6.6-5 1.7-1.4 1.2-2.1 3-2 4.9v12.8H122V321h4.8v3.1c1.6-2.2 4.3-3.5 7-3.4.6.1 1.3.2 1.9.3zM156.1 324.2l-2.8 3.2c-1.4-1.6-3.5-2.5-5.6-2.4-2.2 0-3.3.8-3.3 2.3 0 .6.2 1.2.7 1.5.7.6 1.6 1 2.5 1.3l2.3.9c1.9.7 3.6 1.7 5 3 1.1 1.1 1.6 2.6 1.6 4.2.1 2.1-.8 4.1-2.5 5.4-1.8 1.3-4.1 2-6.3 1.9-3.8.1-7.4-1.6-9.6-4.6l2.9-3.2c2.2 2.3 4.4 3.4 6.7 3.4 1 0 1.9-.2 2.8-.7.7-.4 1.1-1.2 1.1-2 0-.7-.3-1.3-.8-1.6-.8-.5-1.7-1-2.6-1.3l-2.4-1c-1.7-.6-3.3-1.6-4.7-2.9-1-1.1-1.6-2.6-1.5-4.1-.1-2 .8-3.9 2.4-5.1 1.7-1.3 3.8-1.9 6-1.9 3.1-.1 6.1 1.2 8.1 3.7zM167.4 309.7c.7.6 1 1.5 1 2.4 0 .9-.3 1.8-1 2.4-.6.6-1.5 1-2.4 1-.9 0-1.8-.3-2.5-1-.7-.6-1-1.5-1-2.4 0-.9.3-1.8 1-2.4.7-.7 1.6-1 2.5-1 .9 0 1.8.4 2.4 1zm.1 35.2h-5.1V321h5.1v23.9zM189.1 340.6v4.3c-1.4.3-2.8.5-4.2.5-2.3.1-4.6-.6-6.5-2.1-1.6-1.4-2.3-3.5-2.3-6.2v-11.7h-4V321h3.9v-6.3h5.2v6.3h7.1v4.4h-7.1v11.2c-.1 1.2.3 2.4 1.2 3.2 1 .7 2.3 1 3.5.9 1.1.1 2.2 0 3.2-.1zM216.3 321l-11.6 26.6c-.8 1.9-2 3.7-3.6 5-1.5 1.1-3.3 1.6-5.2 1.6-1.3 0-2.7-.2-3.9-.5v-4.3c1.5.1 2.4.2 2.8.2 1.1 0 2.1-.2 3.1-.8 1-.7 1.7-1.6 2.1-2.8l1-2.2-9.5-22.8h5.5l6.9 17.4 7-17.4h5.4zM254.6 324.1c4.9 4.8 5 12.7.2 17.6l-.2.2c-5 4.8-12.9 4.8-17.9 0-4.9-4.9-4.9-12.8 0-17.7 2.4-2.4 5.6-3.7 9-3.6 3.4-.1 6.6 1.2 8.9 3.5zm-14.2 3.4c-2.8 3.2-2.8 7.9 0 11.1 1.4 1.5 3.3 2.3 5.3 2.2 2 0 3.9-.8 5.3-2.2 1.4-1.5 2.2-3.5 2.1-5.5.1-2.1-.7-4.1-2.1-5.6-2.8-2.9-7.5-3-10.4-.2l-.2.2zM271.4 313.4c-.9.8-1.3 2-1.2 3.2v4.4h5.6v4.4h-5.6v19.5h-5.1v-19.5h-3.4V321h3.4v-4.8c0-2.8.8-4.9 2.3-6.2 1.7-1.5 4-2.2 6.2-2.1 1.1 0 2.2.1 3.3.4v4.3c-.7-.1-1.3-.1-2-.1-1.2-.1-2.5.2-3.5.9zM13.4 374c1.4 1.5 2.1 3.5 2 5.5v10.7h-3.5v-2c-1.4 1.6-3.5 2.5-5.7 2.4-1.6.1-3.2-.5-4.4-1.5-1.1-.9-1.7-2.3-1.7-3.7 0-1.4.6-2.8 1.8-3.7 1.4-1 3.1-1.5 4.8-1.4h5v-1.1c.1-1-.3-2.1-1-2.8-.8-.7-1.8-1.1-2.8-1-1.9.1-3.8 1.1-4.9 2.6l-2.2-2.2c1.7-2.4 4.5-3.8 7.5-3.7 1.8-.1 3.6.6 5.1 1.9zm-3.2 12.5c.9-.8 1.4-1.9 1.3-3v-.3H7c-2.1 0-3.1.7-3.1 2.2 0 .7.3 1.3.9 1.7.7.4 1.4.6 2.2.6 1.1 0 2.3-.4 3.2-1.2zM36.5 374.7c3.3 3.8 3.3 9.4 0 13.2-1.6 1.7-3.9 2.7-6.2 2.6-2.3.1-4.4-.8-5.9-2.5v8.6h-3.8v-24.2h3.5v2.5c.7-.9 1.6-1.7 2.6-2.1 3.4-1.4 7.3-.7 9.8 1.9zm-3 10.8c2.1-2.4 2.1-5.9 0-8.3-1-1.1-2.4-1.7-3.9-1.6-1.4 0-2.8.5-3.8 1.5-1.1 1.1-1.7 2.7-1.6 4.3-.1 1.6.5 3.2 1.6 4.3 1 1 2.4 1.5 3.8 1.5 1.5 0 3-.6 3.9-1.7zM59.3 374.7c3.3 3.8 3.3 9.4 0 13.2-1.6 1.7-3.9 2.7-6.2 2.6-2.3.1-4.4-.8-5.9-2.5v8.6h-3.8v-24.2h3.5v2.5c.7-.9 1.6-1.7 2.6-2.1 3.3-1.4 7.2-.7 9.8 1.9zm-3 10.8c2.1-2.4 2.1-5.9 0-8.3-1-1.1-2.4-1.7-3.9-1.6-1.4 0-2.8.5-3.8 1.5-1.1 1.1-1.7 2.7-1.6 4.3-.1 1.6.5 3.2 1.6 4.3 1 1 2.4 1.5 3.8 1.5 1.5 0 2.9-.6 3.9-1.7zM69.9 390.2h-3.7v-27H70l-.1 27zM79.1 364.1c.5.5.8 1.1.8 1.8s-.3 1.3-.8 1.8-1.1.7-1.8.7-1.3-.2-1.8-.7c-.5-.5-.8-1.1-.8-1.8s.3-1.3.8-1.8 1.2-.8 1.8-.7c.6 0 1.3.2 1.8.7zm0 26.1h-3.8v-17.7h3.8v17.7zM100.5 382.6H87.3c.2 1.3.9 2.6 1.9 3.4 1.1.8 2.5 1.3 3.9 1.2 1.9 0 3.8-.8 5.1-2.1l1.8 2.6c-1.9 1.8-4.4 2.9-7.1 2.9-2.5.1-5-.9-6.8-2.6-1.8-1.7-2.8-4.1-2.7-6.6-.1-2.5.9-4.8 2.6-6.6 1.7-1.8 4.1-2.7 6.5-2.7 2.2-.1 4.3.8 5.9 2.3 1.5 1.5 2.4 3.6 2.3 5.8.1.8 0 1.6-.2 2.4zm-11.3-6.1c-.9.8-1.6 1.9-1.8 3.1H97c0-1.2-.5-2.3-1.3-3.1-.9-.8-2-1.2-3.2-1.2-1.2 0-2.4.4-3.3 1.2zM122.4 363.1v27h-3.5v-2.5c-1.4 2-3.8 3.1-6.2 2.9-2.4.1-4.6-.9-6.2-2.6-3.3-3.8-3.3-9.4 0-13.2 1.6-1.7 3.8-2.7 6.2-2.6 2.3-.1 4.5.8 5.9 2.6v-11.5h3.8zm-5.3 22.6c2.1-2.5 2.1-6.1 0-8.6-1-1-2.4-1.5-3.8-1.5-1.5 0-2.9.6-3.9 1.6-2.1 2.4-2.1 5.9 0 8.3 1 1.1 2.4 1.7 3.8 1.6 1.5.1 2.9-.5 3.9-1.4zM149.8 374.8l-2.1 2.3a5.54 5.54 0 0 0-4.1-1.8c-1.6 0-2.4.6-2.4 1.7 0 .4.2.9.5 1.1.6.4 1.2.8 1.8 1l1.7.7c1.4.5 2.6 1.3 3.7 2.2.8.8 1.2 1.9 1.1 3.1.1 1.6-.6 3.1-1.9 4-1.4 1-3 1.5-4.7 1.4-2.8.1-5.5-1.2-7.1-3.4l2.2-2.4c1.2 1.5 3.1 2.4 5 2.5.7 0 1.4-.2 2-.5.5-.3.8-.9.8-1.5 0-.5-.2-.9-.6-1.2-.6-.4-1.2-.7-1.9-1l-1.8-.8c-1.3-.5-2.5-1.2-3.5-2.1-.8-.8-1.2-1.9-1.1-3-.1-1.5.6-2.9 1.8-3.8 1.3-.9 2.9-1.4 4.5-1.4 2.3.1 4.6 1.1 6.1 2.9zM167 373.2c1.3.7 2.3 1.8 3.1 3l-2.7 2.1c-1-1.7-2.8-2.7-4.8-2.7-1.5 0-3 .6-4 1.7-2.1 2.3-2.1 5.9 0 8.2 1 1.1 2.5 1.7 4 1.6 1.9 0 3.7-1 4.8-2.7l2.7 2c-1.5 2.6-4.4 4.2-7.5 4.1-2.5.1-4.9-.9-6.6-2.7-3.6-3.6-3.6-9.5 0-13.1 1.8-1.7 4.2-2.7 6.6-2.6 1.6 0 3.1.4 4.4 1.1zM178 364.1c.5.5.8 1.1.8 1.8s-.3 1.3-.8 1.8-1.1.7-1.8.7-1.3-.2-1.8-.7c-.5-.5-.8-1.1-.8-1.8s.3-1.3.8-1.8 1.2-.8 1.8-.7c.7 0 1.3.2 1.8.7zm.1 26.1h-3.8v-17.7h3.8v17.7zM199.5 382.6h-13.2c.2 1.3.9 2.6 1.9 3.4 1.1.8 2.5 1.3 3.9 1.2 1.9 0 3.8-.8 5.1-2.1l1.8 2.6c-1.9 1.8-4.4 2.9-7.1 2.9-2.5.1-5-.9-6.8-2.7-1.8-1.7-2.8-4.1-2.7-6.6-.1-2.5.9-4.8 2.6-6.6 1.7-1.8 4.1-2.7 6.5-2.7 2.2-.1 4.3.8 5.9 2.3 1.5 1.5 2.4 3.6 2.3 5.8 0 .9-.1 1.7-.2 2.5zm-11.4-6.1c-.9.8-1.6 1.9-1.8 3.1h9.6c0-1.2-.5-2.3-1.3-3.1-.9-.8-2-1.2-3.2-1.2-1.2 0-2.4.4-3.3 1.2zM217.8 374c1.2 1.4 1.9 3.2 1.8 5.1v11.1h-3.8v-10.6c.1-1.1-.3-2.2-1.1-3-.7-.8-1.7-1.2-2.8-1.1-1.1 0-2.1.4-2.9 1.1-.8.8-1.2 1.9-1.1 3v10.6h-3.8v-17.7h3.5v1.8c1.4-1.5 3.3-2.2 5.3-2.2 1.8-.1 3.6.6 4.9 1.9zM237.4 373.2c1.3.7 2.3 1.8 3.1 3l-2.7 2.1c-1-1.7-2.8-2.7-4.8-2.7-1.5 0-3 .6-4 1.7-2.1 2.3-2.1 5.9 0 8.2 1 1.1 2.5 1.7 4 1.6 1.9 0 3.7-1 4.8-2.7l2.7 2c-1.5 2.6-4.4 4.2-7.5 4.1-2.5.1-4.9-.9-6.6-2.7-3.6-3.6-3.6-9.5 0-13.1 1.8-1.8 4.2-2.7 6.6-2.7 1.6.1 3.1.4 4.4 1.2zM260.2 382.6H247c.2 1.3.9 2.6 1.9 3.4 1.1.8 2.5 1.3 3.9 1.2 1.9 0 3.8-.8 5.1-2.1l1.8 2.6c-1.9 1.8-4.4 2.9-7.1 2.9-2.5.1-5-.9-6.8-2.6-1.8-1.7-2.8-4.1-2.7-6.6-.1-2.5.9-4.8 2.6-6.6 1.7-1.8 4.1-2.7 6.5-2.7 2.2-.1 4.3.8 5.9 2.3 1.5 1.5 2.4 3.6 2.3 5.8.1.8 0 1.6-.2 2.4zm-11.2-6.1c-.9.8-1.6 1.9-1.8 3.1h9.6c0-1.2-.5-2.3-1.3-3.1-.9-.8-2-1.2-3.2-1.2-1.3 0-2.4.4-3.3 1.2zM276.6 374.8l-2 2.3a5.54 5.54 0 0 0-4.1-1.8c-1.6 0-2.4.6-2.4 1.7 0 .4.2.9.5 1.1.6.4 1.2.8 1.8 1l1.7.7c1.4.5 2.6 1.3 3.7 2.2.8.8 1.2 1.9 1.1 3.1.1 1.6-.6 3.1-1.9 4-1.4 1-3 1.5-4.7 1.4-2.8.1-5.5-1.2-7.1-3.4l2.2-2.4c1.2 1.5 3.1 2.4 5 2.5.7 0 1.4-.2 2-.5.5-.3.8-.9.8-1.5 0-.5-.2-.9-.6-1.2-.6-.4-1.2-.7-1.9-1l-1.8-.8c-1.3-.5-2.5-1.2-3.5-2.1-.8-.8-1.2-1.9-1.1-3-.1-1.5.6-2.9 1.8-3.8 1.3-.9 2.9-1.4 4.5-1.4 2.3.1 4.5 1.1 6 2.9zM123.3 124.1V64h-9.5v39.9L77.8 63h-3.3v60.1H84V83.2l36.1 40.9zM177.5 123.1h9.5V64h-9.5v23.5h-29.7V64h-9.5v59.1h9.5v-27h29.7zM99.9 203.1c-2.1 1.6-4.7 2.4-7.4 2.2-6 0-11.2-3.1-15.5-9.4l-6.7 5.2c2.2 3.9 5.4 7.2 9.2 9.4 4 2.3 8.5 3.5 13.1 3.4 5.7 0 10.5-1.6 14.2-4.7 3.7-3 5.8-7.6 5.6-12.4.1-3.6-1.1-7-3.5-9.7-2.3-2.6-5.9-5-10.7-7.2l-6.6-3c-2.3-1-4.4-2.3-6.4-3.8-1.3-1.2-2-2.9-1.9-4.7-.1-2.1.9-4.1 2.6-5.3 1.9-1.3 4.1-1.9 6.4-1.8 5.1 0 9.3 2.4 12.5 7.2l6.6-5.1c-1.9-3.2-4.6-5.8-7.8-7.7-3.4-2-7.3-3-11.3-2.9-4.8-.2-9.5 1.4-13.3 4.4-3.5 2.8-5.5 7.1-5.4 11.6-.1 3.6 1.2 7 3.6 9.6 2.9 2.9 6.4 5.2 10.2 6.8l6.6 3c2.4 1 4.6 2.3 6.7 4 1.4 1.3 2.1 3.1 2 4.9.1 2.4-1 4.6-2.8 6zM148 212.9v-50.6h20v-8.5h-49.4v8.5h19.9v50.6zM216.9 204.4h-30.5v-18.7h22.2v-8.3h-22.2v-15.1h29.4v-8.5h-38.9v59.1h40zM310.2 153.8h-18.6V213h18.6c9.7 0 17.5-2.8 23.4-8.3s8.8-12.7 8.8-21.4c0-8.8-2.9-15.9-8.8-21.3-5.8-5.5-13.6-8.2-23.4-8.2zm16.4 44.7c-4.1 3.9-9.5 5.9-16.4 5.9h-9v-42.1h9c6.9 0 12.4 1.9 16.5 5.7s6.1 8.9 6 15.2c0 6.3-2.1 11.4-6.1 15.3zM363.2 185.7h22.2v-8.3h-22.2v-15.1h29.5v-8.5h-39v59.1h40v-8.5h-30.5zM444 153.8v39.9l-35.9-40.9h-3.3v60.1h9.5v-40l36 41h3.2v-60.1z"/><path d="M.3 276.8h276.8v-123H267v39.6l-35.8-40.6h-3.3v60.1h9.5v-40l29.6 33.6v60.2H10.4V10.1H267v104.5h-55.5V64H202v59.1H277.1V0H.3z"/></svg>