<svg version="1.1" id="logo" xmlns="http://www.w3.org/2000/svg" x="0" y="0" width="378" height="120" viewBox="0 0 378 120" enable-background="new 0 0 378 120" xml:space="preserve"><g><path fill="#002F86" d="M98.656 46.065c-.8.016-.942-.008-1.736-.008-.71 0-1.54-.335-1.54-1.12 0-.544.29-1.212.79-1.212.25 0-.02-.028.41.052-.09-.484 0-.052-.06-.525-.08-.572.49-.978 1.01-.978.85 0 1.11 1.172 1.11 2.12v1.673l.016-.002zm13.534 2.163c0-.648-.01-1.018-.01-1.666 0-.95-.25-2.122-1.11-2.122-.52 0-1.148.495-1.068 1.07.06.472.08.346.12.438-.44-.073-.16-.05-.41-.05-.49 0-.79.67-.79 1.21 0 .79.83 1.127 1.54 1.127.79 0 .95.022 1.74.005l.01-.02-.02.008zm-4.67 5.517v-1.667c0-.95-.25-2.127-1.108-2.127-.52 0-1.12.52-1.05 1.09.07.49.06.25.1.43-.43-.07-.16-.05-.41-.05-.49 0-.79.67-.79 1.21 0 .79.82 1.12 1.54 1.12.79 0 .94.03 1.74.01h.01l-.03-.01zm-4.79 5.892v-1.672c0-.95-.25-2.122-1.108-2.122-.52 0-1.11.478-1.03 1.047.06.477.08.335.08.46-.44-.074-.16-.05-.41-.05-.49 0-.79.67-.79 1.21 0 .79.83 1.127 1.54 1.127.79 0 .95.022 1.74.005l.01-.005h-.03zm-4.72 5.943v-1.672c0-.944-.25-2.116-1.11-2.116-.52 0-1.12.49-1.05 1.063.07.473.08.358.102.443-.44-.08-.16-.06-.42-.06-.49 0-.78.66-.78 1.21 0 .79.83 1.12 1.54 1.12.79 0 .94.01 1.73 0l.01-.01-.02.022zm21.81-8.292v-1.672c0-.944-.25-2.122-1.108-2.122-.52 0-1.1.46-1.03 1.03.06.478.06.432.08.478-.44-.074-.16-.052-.41-.052-.49 0-.79.67-.79 1.212 0 .79.82 1.126 1.54 1.126.79 0 .94.028 1.73.005l.01-.005h-.02zm-4.55 5.76v-1.67c0-.95-.25-2.122-1.108-2.122-.52 0-1.12.5-1.05 1.07.07.476.09.38.11.438-.44-.08-.16-.053-.41-.053-.49 0-.79.67-.79 1.23 0 .79.83 1.13 1.54 1.13.8.01.94.03 1.73.01l-.02-.02zm-4.89 6.018v-1.672c0-.944-.25-2.12-1.11-2.12-.52 0-1.108.47-1.028 1.044.06.47.05.38.08.46-.43-.08-.16-.05-.41-.05-.49 0-.78.66-.78 1.21 0 .78.82 1.12 1.54 1.12.8 0 .94.02 1.73 0v-.01l-.02.018zm-4.58 5.824v-1.68c0-.95-.26-2.12-1.11-2.12-.52 0-1.108.46-1.028 1.04.06.47.06.38.08.46-.44-.08-.16-.05-.41-.05-.49 0-.79.66-.79 1.21 0 .79.82 1.12 1.53 1.12.8 0 .95.03 1.74 0l-.01.02zM119.97 76c0-.643-.005-1.018-.005-1.667 0-.95-.25-2.12-1.11-2.12-.52 0-1.176.482-1.085 1.05.074.456.058.268.135.456-.438-.08-.164-.05-.414-.05-.49 0-.78.67-.78 1.21 0 .79.82 1.12 1.54 1.12.79 0 .94.02 1.73 0zm3.59-4.504c0-.65-.01-1.02-.01-1.67 0-.944-.25-2.12-1.105-2.12-.522 0-1.13.478-1.052 1.046.058.473.048.26.1.46-.44-.08-.16-.057-.415-.057-.49 0-.79.67-.79 1.215 0 .788.82 1.12 1.53 1.12.79 0 .94.023 1.74.006h.002zm-54.84 12.29c0-.597-.01-.945-.01-1.54 0-.876-.24-1.956-1.053-1.956-.497 0-1.037.383-.965.915.058.438-.03.03.058.477-.416-.064-.154-.037-.394-.037-.465 0-.75.607-.75 1.113 0 .73.78 1.03 1.46 1.03.75 0 .893.022 1.644.005l.01-.004v-.01zM84.1 82.29c0-.603-.007-.95-.007-1.54 0-.877-.244-1.958-1.052-1.958-.49 0-1.05.45-.98.978.07.438.07.31.09.408-.4-.074-.14-.046-.39-.046-.46 0-.75.614-.75 1.115 0 .728.78 1.035 1.46 1.035.76 0 .9.022 1.65.006v.002h-.02zm-3.807 4.33c0-.597-.006-.937-.006-1.54 0-.876-.24-1.962-1.053-1.962-.494 0-1.063.415-.996.944.06.438.04.363.09.443-.41-.074-.15-.046-.39-.046-.47 0-.75.61-.75 1.11 0 .73.78 1.03 1.46 1.03.75 0 .89.02 1.65 0l-.01.01h.005zm-3.805 4.636c0-.604-.006-.95-.006-1.547 0-.88-.24-1.96-1.052-1.96-.495 0-1.046.42-.978.96.057.43.017.32.073.42-.415-.07-.153-.04-.393-.04-.466 0-.75.61-.75 1.11 0 .72.78 1.02 1.455 1.02.757 0 .893.01 1.65 0v.03zm-3.98 4.504c0-.6-.007-.93-.007-1.54 0-.868-.23-1.948-1.05-1.948-.5 0-1.04.42-.98.95.07.43.03.3.08.44-.41-.07-.15-.04-.39-.04-.46 0-.75.62-.75 1.12 0 .728.79 1.04 1.46 1.04.76 0 .9.028 1.65.01l-.01-.03zm18.502-3.55c0-.59-.004-.95-.004-1.54 0-.87-.244-1.95-1.057-1.95-.5 0-1.06.392-.98.92.06.44.04.4.07.48-.44-.07-.16-.05-.4-.05-.46 0-.75.62-.75 1.12 0 .73.79 1.03 1.46 1.03.75 0 .89.02 1.65.01v.01l.01-.03zm-3.985 4.58v-1.55c0-.87-.244-1.95-1.056-1.95-.5 0-1.06.44-.99.97.06.44.03.272.08.422-.42-.06-.16-.04-.39-.04-.47 0-.75.62-.75 1.12 0 .73.78 1.04 1.46 1.04.75 0 .89.02 1.64.01v-.02zm-3.64 4.27c0-.59-.007-.938-.007-1.538 0-.86-.24-1.95-1.056-1.95-.494 0-1.052.43-.978.96.06.44.034.29.08.45-.422-.07-.157-.05-.4-.05-.47 0-.75.62-.75 1.12 0 .74.783 1.04 1.46 1.04.757 0 .898.03 1.644.01l.006-.01v-.03zm-3.875 4.76v-1.53c0-.87-.24-1.95-1.05-1.95-.49 0-1.03.44-.96.96.06.44.01.33.06.43-.41-.06-.148-.038-.39-.038-.46 0-.75.61-.75 1.12 0 .73.79 1.04 1.46 1.04.76 0 .9.02 1.65 0l-.02-.032zm9.73 6.48v-1.528c0-.87-.24-1.95-1.05-1.95-.49 0-1.03.39-.96.91.06.44-.03.04.06.49-.41-.07-.15-.05-.39-.05-.47 0-.75.62-.75 1.12 0 .73.78 1.04 1.46 1.04.75 0 .89.02 1.64.01v-.01l-.01-.03zm3.63-4.23v-1.54c0-.87-.24-1.95-1.05-1.95-.5 0-1.03.38-.96.91.06.44-.03.04.06.49-.42-.06-.15-.04-.39-.04-.46 0-.75.62-.75 1.12 0 .74.79 1.04 1.46 1.04.76 0 .9.03 1.65.01l.01-.01-.03-.03zm21.37-11.966c1.184.24 2.903-.3 4.363-2.74 1.46-2.45 1.13-5.44.73-4.82-1.404 2.16-5.3 2.97-4.57 2.602 1.648-.867 4.138-2.34 4.698-5.73.8-4.74-1.51-6.88-1.51-6.88s-4.43.455-4.96 10.235c0 0-.13.16-.53-.46-.4-.61-.92-.53-1.65-1.15-.74-.61-1-1.52-1-2.36s.26-1.14.85-1.37c.6-.22 1.99-1.06 1.99-1.06s-2.85.22-1.99-.31c.86-.53 2.32-.46 2.32-.46l-.4-.61s-1.32-.38-2.18-.91c-.86-.54-.59-.92-1.99-.23-1.39.69-.72 2.98-.53 5.12.16 1.71-.45 2.4-.7 2.6-.24-.21-.85-.89-.69-2.61.2-2.14.86-4.42-.53-5.12-1.38-.69-1.12-.31-1.98.23-.86.53-2.18.91-2.18.91l-.39.61s1.45-.07 2.32.46c.86.53-1.98.3-1.98.3s1.39.85 1.99 1.07c.59.23.86.54.86 1.38s-.27 1.76-1 2.36c-.73.62-1.26.53-1.65 1.15-.39.62-.53.46-.53.46-.53-9.78-4.96-10.24-4.96-10.24s-2.32 2.14-1.52 6.89c.57 3.39 3.06 4.86 4.7 5.73.73.37-3.16-.44-4.57-2.6-.4-.62-.73 2.37.73 4.82 1.46 2.44 3.18 2.98 4.37 2.74 1.19-.23-1.23 1-3.24.61-.8-.15 2.71 4.44 5.56 3.67.66-.17 1.23-.4 1.73-.64-.14.31-.38 1.23-.43 1.52-.16.84-.51 1.79-.96 2.73-.69-1.12-1.34-2.43-2.45-2-.54.21-.81.66-.99 1.3l-.11.38c.28-.23.37-.48.69-.6.57-.22 1.14.31 1.33.99.08.3.09.49.14.81-.76-.21-1.24-.28-1.98.01-.69.27-.86 1.05-.97 1.89l.02.33c.27-.63.6-.99 1.16-1.2.48-.19.9-.14 1.32.16-.75.98-1.62 1.82-1.27 3.1.18.66.61.92 1.17 1.15l-.02-.33c-.05-.12-.18-.12-.21-.26-.48-1.73.82-3.26 2.28-3.82.82-.33 1.41.12 2.23-.19.33-.14.53-.27.87-.38-.77-.72-1.5-.63-2.46-.45.09-1.54.66-2.27 1.41-3.4.09-.14.33-.58.51-.97 1.1 2.74 1.71 3.55 1.84 3.33.48-.82 1.01-2.15 1.37-3.11.17.25.34.48.42.56.83.94 1.47 1.53 1.74 2.96-.95-.02-1.66.01-2.31.8.34.04.54.15.88.21.82.17 1.34-.34 2.17-.17 1.46.3 1.55.62 1.3 2.31-.02.13 1.42-1.65.58-2.46.38-.34.77-.45 1.26-.35.56.11.79.13.79.13-.19-.77-.02-.97-.71-1.11-.74-.16-1.19-.02-1.9.3.01-.3 0-.48.05-.77.11-.67.59-1.25 1.17-1.13.32.08.44.29.73.46l-.15-.33c-.25-.57-.55-.96-1.1-1.07-1.11-.23-1.59 1.09-2.13 2.25-.54-.8-.99-1.64-1.23-2.39-.09-.27-.42-1.09-.59-1.35l-.05-.08c-.63.49-1.44.92-2.49 1.22v.01c-4.12-1.02-4.49-5.16-4.492-5.2V89.1h.025l-.006-.008c5.155-1.966 9.03-.06 9.19.024v.007h.02v-.02l.047 6.45c0 .053-.15 2.3-2.234 3.926.617.35 1.39.71 2.33.96l-.1-.08.054.04c2.85.76 6.36-3.82 5.57-3.67-2.02.39-4.44-.84-3.24-.61z"></path><path fill="#FFF" d="M109.56 99.44l.03.048.04-.03-.052-.028c.726-.613.256-.22-.018.01zm0 0c-.255.214-.16.135 0 0z"></path><path fill="#002F86" d="M103.57 95.23v-2.37h7.3l.017 2.372m-.04-5.472l.015 2.124h-7.29V89.78c3.42-1.11 6.178-.406 7.274-.02m-3.77 9.933c-2.268-.67-3.074-2.465-3.357-3.48h7.03c-.28.96-1.12 2.67-3.69 3.48M81.91 66.1l.034.032-.003-.005z"></path><path fill="#002F86" d="M87.01 62.775c1.26.24 3.08-.32 4.62-2.867 1.54-2.546 1.188-5.647.77-5.016-1.49 2.252-5.6 3.106-4.84 2.707 1.74-.9 4.37-2.44 4.97-5.97.83-4.94-1.61-7.17-1.61-7.17s-4.69.48-5.26 10.67c0 0-.14.16-.57-.48-.42-.64-.97-.57-1.75-1.2-.77-.64-1.05-1.6-1.05-2.47 0-.88.28-1.2.91-1.44s2.1-1.11 2.1-1.11-3.01.24-2.1-.32c.91-.56 2.45-.48 2.45-.48l-.42-.63s-1.4-.4-2.31-.96-.63-.96-2.102-.24c-1.47.71-.77 3.1-.56 5.33.17 1.78-.48 2.5-.73 2.71-.26-.22-.91-.93-.74-2.72.21-2.23.91-4.62-.56-5.33-1.47-.72-1.19-.32-2.11.24-.91.55-2.31.95-2.31.95l-.42.63s1.54-.08 2.45.48-2.1.32-2.1.32 1.47.88 2.1 1.12c.63.24.91.56.91 1.43s-.28 1.83-1.05 2.46c-.76.63-1.33.56-1.75 1.19-.42.63-.56.47-.56.47-.56-10.19-5.13-9.84-5.13-9.84s-2.57 1.41-1.73 6.34c.6 3.53 1.62 5.51.14 3.26-.42-.64-.77 2.47.77 5.01 1.54 2.54 3.36 3.1 4.62 2.86 1.27-.25-1.3 1.03-3.43.63-.84-.16 2.87 4.61 5.89 3.82.69-.19 1.3-.42 1.82-.67-.15.38-.34 1.09-.39 1.34-.16.81-.52 1.76-.98 2.67-.72-1.11-1.39-2.38-2.52-1.96-.57.2-.83.66-1.02 1.27l-.11.37c.28-.23.38-.47.71-.6.59-.21 1.17.3 1.36.96.09.31.1.49.16.8-.79-.21-1.28-.27-2.04.01-.71.26-.89 1.03-1 1.85l.02.33c.28-.62.61-.98 1.19-1.19.49-.18.93-.14 1.36.16-.78.97-1.682 1.8-1.312 3.05.18.65.62.9 1.19 1.13l-.02-.32c-.05-.1-.18-.12-.22-.25-.49-1.7.84-3.2 2.34-3.76.83-.31 1.45.13 2.29-.18.34-.13.54-.27.89-.37-.79-.71-1.54-.62-2.53-.44.1-1.52.69-2.24 1.45-3.35.09-.13.3-.5.48-.85 1.19 2.91 1.85 3.77 1.98 3.55.5-.87 1.068-2.25 1.448-3.25.18.25.36.48.44.58.88.98 1.56 1.6 1.84 3.08-1-.02-1.77.01-2.45.83.36.05.57.15.93.22.87.17 1.42-.35 2.29-.18 1.543.31 3.05 1.59 2.78 3.36-.02.13-.15.17-.19.28l.02.32c.54-.3.94-.63 1.04-1.31.2-1.29-.786-1.97-1.67-2.8.385-.37.812-.48 1.323-.38.59.12.97.41 1.32.98l-.02-.32c-.21-.8-.49-1.54-1.22-1.68-.79-.15-1.26-.01-2.01.32.01-.32.01-.5.06-.81.11-.7.62-1.29 1.23-1.17.34.06.463.29.77.47l-.13-.33c-.266-.59-.59-.99-1.17-1.11-1.17-.23-1.69 1.14-2.255 2.35-.565-.83-1.04-1.7-1.305-2.5-.09-.27-.447-1.12-.63-1.4l-.117-.167-.027-.03.03.026.002.01.034.03c.67.4 1.52.79 2.57 1.07 3.01.79 6.72-3.98 5.88-3.82-2.13.4-4.69-.875-3.44-.636zm-7.44 4.11v-.005l-.004.01c-4.13-1.015-4.494-5.157-4.5-5.198l-.006-6.442h.023l-.006-.006c5.152-1.965 9.024-.06 9.185.02l-.005.01h.02v-.005h.02l.046 6.45c0 .06-.246 3.89-4.773 5.16z"></path><path fill="#002F86" d="M76.028 61.406v-2.373h7.3l.016 2.373m-.04-5.474l.015 2.124h-7.3V55.95c3.42-1.108 6.18-.403 7.27-.016m-3.77 9.93c-2.27-.665-3.08-2.462-3.36-3.48h7.04c-.28.96-1.12 2.673-3.68 3.48m102.42-10.34c3.26.387 9.32-5.09 2.2-11.436-7.11-6.34-10.76-1.246-10.76-1.246s6.53-1.683 5.58 2.645c0 0 .09 1.348-6.16 2.16-8.42 1.104-7.3 12.302-6.05 14.805.92 1.848 7.22 8.036 10.47 11.966 0 0 2.98 2.838 2.01 6.682-.08.336-1.27 4.203-4.8 4.328-5.58.193-9.42-6.92-9.42-6.92s-2.89-5.38-2.98-11.53c0 0-2.48 3.187-5.2 1.155-.38-.29 1.02 10.874 11.92 19.133 3.56 2.69 11.62 1.41 13.26-5.29 1.54-6.245-.48-7.587-7.01-14.314-6.54-6.72-5.19-11.05-2.98-13.26s6.63.77 9.91 1.16m-12.24-2.57s2.16-3.16 4.71-3.07c7.75.28 7.75-2.98 7.75-2.98 3.35 4.89-1.27 5.62-5.78 4.27-3.58-1.07-6.68 1.8-6.68 1.8m-20.93-27.47c-2.52 6.06-7.72 4.48-7.78 4.81-.39 2.31 3.36 6.64 4.6 6.55.96-.07 5.25-.45 5.25-.45s.99 2.26.6 2.16c-4.89-1.21-6.57.54-6.57.54s-.34 2.5-1.21 4.58c4.94 1.77 12.38-2.89 10.19-2.1-2.2.78-6.72.93-7.74.51-.32.11.47-1.64.72-1.78 2.24-1.28 5.47-.11 5.67-.31 1.18-1.15-.36-5.29-.36-5.29s.16-.47-6.09.4c-1.7-.39-2.06-3.27-2.02-3.27 3.98 0 5.59-3.14 6.05-3.17 10.76-.66 8.57-6.81 8.87-6.55 1.4 1.27 2.87 2.98 2.87 2.98l2.48-.46s-1.36-3.05-3.47-5.2c-2.26-2.29-5.28-3.67-5.07-3.07 3.75 11.03-7.04 9.13-7.04 9.13"></path><path fill="#002F86" d="M161.082 31.29s.02-3.734-1.435-3.734c-.1 0 5.1-2.415 9.032-1.343 1.07.295-1.64 5.27-1.64 5.27s8.08 8.372-2.3 20.378c-10.38 12.02 0 9.23 0 9.23s-.86 1.83-3.08 1.83c-2.23 0-5.01-3.73-3.76-6.15 1.24-2.42 8.27-9.72 8.37-14.04.1-4.32-.86-6.64-4.42-9.13 0 0 3.86-2.35 4.32-5 .19-1.15-5.12 2.68-5.12 2.68l.01.02v-.01zm-4.338-.63s-2.49-1.872-3.55-1.104c-.106.08-1.494 2.297-1.415 2.297 2.31 0 4.48.2 4.48.2l.47-1.4v.006zm15.293 69.445c-14.525 1.343-16.538-5.477-17.112-10.58-.58-5.09 4.23-10.28-2.02-14.603-6.25-4.328-5.482-6.057-5.482-6.057s-4.52 1.382-4.715 3.26c-.193 1.92 3.077 3.075 6.438 5.19 3.367 2.11 3.458 3.846 3.077 10.96-.38 7.11 4.13 17.682 19.803 11.817l.01.013z"></path><path fill="#002F86" d="M184.06 109.15c-4.972-1.414-4.512-3.457-4.512-3.457 2.406-2.98 1.63-7.594 1.63-7.594-11.955-2.99-10.567-8.57-10.567-8.57s-2.77-.19-4.8-2.5c0 0 0 10.09 11.74 12.97 0 0 1.5 2.36-.87 6.15-.47.76 4.05 3.26 4.05 3.26s-.89 3.94-.58 6.05c0 0-6.29-3.54-13.68-2 0 0-.46-3.9.79-5.16 0 0-.73-1.01-4-1.3 0 0 1.64 4.91-.37 11.24 0 0 11.63-6.73 18.93-.1-1.64-4.52 2.81-8.89 2.31-9.04l-.03-.01-.03.05zm-56.49-.848c15.572 2.69 3.94-18.83 3.94-18.83 14.128-2.503 16.82-10.96 16.82-10.96s3.654 1.445 2.98 4.903c0 0-1.44 4.424-15.567 7.022 0 0 7.204 22.39-5.955 19.99l-1.547-.87-.67-1.245v-.01z"></path><path fill="#002F86" d="M151.094 91.177c.385-.762-.096 2.4.964 4.327 0 0-2.6 3.555-10.197 3.268l.4-2.115s5.51 1.185 8.85-5.48m-23.45 19.42c-.07-.073.49 2.015.19 4.033-.34 2.277-1.54 4.517-1.54 4.517 9.03-5.476 17.78-1.153 17.78-1.153s3.95-4.902 2.6-8.36c-3.08-7.9-.86-9.896-.86-9.896s-2.98.285-3.84.285c-.87 0-.39 4.24 1.35 9.33 1.73 5.09-.39 6.92-.39 6.92s-6.48-3.96-12.54-1.55c0 0 1.39-2.76.91-3.24 0 0-1.82 1.16-3.65-.86m42.19-8.362l-3.27 1.16s-.38 3.28 6.83 5.48c.17.06-1.65-1.28-2.6-2.97-.92-1.65-.96-3.64-.96-3.64M5.74 55.53c3.28-.39 7.692-3.37 9.903-1.158 2.21 2.21 3.56 6.53-2.98 13.26-6.533 6.73-8.55 8.074-7.014 14.32 1.65 6.704 9.7 7.983 13.26 5.29 10.9-8.25 12.3-19.414 11.92-19.124-2.72 2.03-5.19-1.15-5.19-1.15-.09 6.15-2.98 11.53-2.98 11.53s-3.85 7.11-9.43 6.93c-3.53-.12-4.72-3.99-4.8-4.32-.96-3.85 2.01-6.68 2.01-6.68 3.25-3.93 9.55-10.12 10.48-11.97 1.25-2.5 2.37-13.7-6.05-14.8-6.25-.818-6.16-2.16-6.16-2.16-.96-4.33 5.57-2.65 5.57-2.65s-3.64-5.107-10.75 1.24c-7.12 6.35-1.06 11.824 2.2 11.443M18 52.98s-3.103-2.87-6.683-1.794c-4.517 1.353-9.135.62-5.78-4.266 0 0 0 3.26 7.76 2.984 2.547-.09 4.708 3.073 4.708 3.073M38.92 25.535c2.517 6.05 7.717 4.477 7.78 4.805.384 2.31-3.367 6.637-4.61 6.544-.967-.07-5.25-.45-5.25-.45s-.993 2.264-.608 2.162c4.89-1.217 6.568.53 6.568.53s.338 2.5 1.21 4.58c-4.942 1.77-12.387-2.888-10.19-2.104 2.194.785 6.72.94 7.74.524.317.113-.473-1.638-.723-1.78-2.24-1.274-5.478-.108-5.676-.302-1.17-1.143.37-5.278.37-5.278s-.16-.466 6.09.4c1.7-.394 2.06-3.272 2.03-3.272-3.97 0-5.58-3.14-6.04-3.167-10.77-.67-8.58-6.825-8.88-6.558-1.39 1.27-2.87 2.98-2.87 2.98l-2.49-.46s1.36-3.06 3.47-5.2c2.26-2.3 5.28-3.67 5.08-3.08-3.76 11.01 7.04 9.12 7.04 9.12"></path><path fill="#002F86" d="M26.616 31.29s-.02-3.732 1.433-3.732c.09 0-5.1-2.414-9.04-1.342-1.08.295 1.63 5.27 1.63 5.27s-8.08 8.374 2.3 20.384c10.37 12.01 0 9.23 0 9.23s.85 1.83 3.07 1.83 5.01-3.73 3.75-6.147c-1.24-2.417-8.28-9.714-8.37-14.036-.1-4.317.86-6.637 4.42-9.128 0 0-3.86-2.35-4.32-5.01-.2-1.15 5.11 2.68 5.11 2.68v-.01h.01zm4.322-.607s2.485-1.877 3.55-1.11c.1.08 1.49 2.3 1.415 2.3-2.314 0-4.486.203-4.486.203l-.48-1.4v.007zM15.645 100.13c14.52 1.345 16.533-5.478 17.108-10.58.58-5.09-4.232-10.282 2.02-14.604 6.244-4.327 5.48-6.053 5.48-6.053s4.517 1.385 4.71 3.263c.19 1.925-3.077 3.075-6.442 5.192-3.37 2.112-3.46 3.844-3.06 10.96.38 7.11-4.13 17.683-19.8 11.82h.01l-.01.002z"></path><path fill="#002F86" d="M3.636 109.15c4.973-1.41 4.513-3.453 4.513-3.453-2.41-2.982-1.64-7.596-1.64-7.596 11.95-2.98 10.57-8.55 10.57-8.55s2.77-.19 4.8-2.5c0 0 0 10.1-11.74 12.98 0 0-1.5 2.36.87 6.15.47.77-4.05 3.27-4.05 3.27s.89 3.94.58 6.05c0 0 6.29-3.55 13.68-2.01 0 0 .46-3.9-.79-5.15 0 0 .73-1.02 4-1.3 0 0-1.64 4.9.38 11.24 0 0-11.63-6.73-18.94-.1 1.64-4.52-2.81-8.89-2.3-9.04h.02l.04.02zm56.49-.86c-15.573 2.688-3.943-18.833-3.943-18.833-14.132-2.502-16.822-10.96-16.822-10.96s-3.64 1.44-2.97 4.9c0 0 1.44 4.426 15.58 7.02 0 0-7.2 22.39 5.96 19.993l1.55-.873.67-1.248h-.01z"></path><path fill="#002F86" d="M36.603 91.18c-.385-.762.098 2.4-.964 4.326 0 0 2.59 3.557 10.19 3.27l-.4-2.116s-5.52 1.18-8.85-5.49l.01.01zm23.45 19.418c.073-.072-.485 2.014-.183 4.033.34 2.28 1.54 4.52 1.54 4.52-9.03-5.47-17.777-1.14-17.777-1.14s-3.947-4.9-2.6-8.36c3.077-7.9.87-9.89.87-9.89s2.98.29 3.845.29c.87 0 .393 4.23-1.343 9.33-1.73 5.09.388 6.92.388 6.92s6.482-3.96 12.54-1.56c0 0-1.388-2.76-.904-3.25 0 0 1.82 1.15 3.64-.86l-.03.01.01-.03zm-42.172-8.37l3.27 1.148s.4 3.27-6.83 5.47c-.15.053 1.66-1.283 2.61-2.98.92-1.653.96-3.65.96-3.65v.012h-.01zm137.16-37.962c-2.68-2.98-3.45-7.88-3.45-7.88s.39 3.747-4.42 6.437c-4.8 2.69-3.55 1.342-7.79 4.702 0 0-3.98 3.33-5.46 7.75-.39 1.194-.4 1.785-.35 2.024-.14-.19-.57-.5-1.66-.65-1.34-.19-3.61-.23-4.99-.23v-2.41c2.5-1.33 5.24.38 5.42.19.42-.43 1.39-9.26 7.77-18.87 6.39-9.61 15.65-6.55 15.65-6.55-.78-2 1.63-4.71 1.63-4.71s-12.66-1.04-18.19 6.89c-5.53 7.92-7.82 20.7-7.82 20.7s-2.49-1.48-4.43-.04V45.21c.29.235.61.46.97.677 0 0 .61 6.754 6.83 10.454l1.46-3.31c-8.15-4.31-5.6-8.76-5.6-8.76-2.08-.62-4.06-2.69-4.06-2.69 3.3 1.47 5.22-.23 5.53.53 1.29 3.13 6.94 7.24 6.94 7.24l2-2.55s-6.65-2.4-8.13-7.54c0 0-4.62 2.37-8.15-.16 0 0-.35 1.23.04 2.78-4.83-1.69-17-5.62-31.08-5.45-13.92-.11-25.93 3.77-30.72 5.45.39-1.54.04-2.78.04-2.78-3.53 2.53-8.15.16-8.15.16-1.48 5.14-8.13 7.54-8.13 7.54l2.06 2.55s5.65-4.12 6.94-7.24c.31-.76 2.22.93 5.52-.53 0 0-1.98 2.07-4.07 2.69 0 0 2.55 4.44-5.61 8.754l1.42 3.3c6.22-3.703 6.83-10.46 6.83-10.46.36-.215.68-.443.97-.68V71.6c-1.937-1.438-4.434.035-4.434.035s-2.3-12.773-7.82-20.695C43 43.03 30.35 44.058 30.35 44.058s2.407 2.707 1.628 4.715c0 0 9.25-3.06 15.63 6.552 6.38 9.616 7.34 18.442 7.765 18.87.19.187 2.925-1.524 5.42-.2v2.418c-1.38 0-3.645.034-4.99.222-1.095.147-1.52.46-1.67.643.04-.24.04-.83-.36-2.024C52.28 70.83 48.3 67.5 48.3 67.5c-4.23-3.358-2.99-2.01-7.79-4.7-4.81-2.69-4.43-6.44-4.43-6.44s-.77 4.9-3.46 7.88c-2.71 2.98-7.8-.384-7.8-.384s3.84 7.4 11.54.677c0 0-.29 2.014 5.19 3.555 3.42.96 8.11 4.25 9.64 7.168 1.48 2.867 1.59 6.058 2.11 6.058.09 0 3.8-3.35 7.438-2.984 0 .824.08 2.303.47 4.34 3.51 18.78 12.15 32 32.59 37.164 20.44-5.164 29.04-18.387 32.55-37.17.38-2.037.47-3.51.47-4.34 3.632-.364 7.342 2.98 7.432 2.98.54 0 .63-3.19 2.12-6.058 1.52-2.923 6.21-6.21 9.64-7.166 5.48-1.54 5.19-3.56 5.19-3.56 7.69 6.72 11.54-.68 11.54-.68s-5.1 3.36-7.8.38l.05.04.05.006zm-29.91-17.18V53.1l-14.7 17.82-4.68 5.658h-8.37l13.99-16.83 11.48-13.733c.96.444 1.76.82 2.3 1.08l-.01-.01h-.01zm-5.67 21.154l5.69-7 .02 15.35h-12.49l5.45-6.7 1.35-1.628-.01-.012.01-.005-.02-.005zm-25.33-29.2c1.84.026 6.67.178 11.8 1.07l-5.33 6.394-6.45 7.722v-15.19l-.02.004zm0 23.446l10.49-12.546 7.22-8.41c1.87.61 3.97 1.43 5.97 2.268l-9.39 11.26v-.005l-1.23 1.482L94.13 72.11v-9.63h-.004l.005.006zm-31.59-9.348V47.12c.55-.26 1.34-.64 2.3-1.08l5.07-2.243c1.99-.837 4.09-1.657 5.97-2.267l5.91-1.42c5.16-.897 10.02-1.045 11.83-1.068v37.565h-3.15v.004H75.41l-.003.01H62.52l.01-15.35v-8.13h-.002.013zm.65 29.676c-.39-2.08-.58-3.82-.64-4.705v-1.04h12.5L64.7 89.42c-.58-2.09-1.08-4.294-1.514-6.614h.005zm6.69 18.58c-1.23-1.863-2.27-3.894-3.18-6.083l15.24-18.24h8.15l-20.21 24.32v.01zm23.75 13.967c-4.01-.73-7.51-1.77-10.55-3.09l10.54-12.75v15.85h.02zm0-24.06l-15.28 18.45c-1.89-1.21-3.56-2.58-5.04-4.1l20.33-24.47V91.3l-.01.007zm30.91-8.48c-3.32 17.8-10.29 28.85-30.38 32.55v-38.3h31.04v1.03c-.07.89-.26 2.63-.65 4.71l-.01.01zM86.88 3.61l-.29 8.36s-4.146-5.16-5.295 1.244c-.443 2.49-.108 6.648.865 9.782 1.523 4.925 5.005 9.253 5.005 9.253h-2.15s-8.02-4.63-8.588-20.1c-.627-17.06 10.45-8.54 10.45-8.54l-.004-.01.007.01z"></path><path fill="#002F86" d="M74.998 8.02s-11.01-5.462-8.276 9.7c2.48 13.758 10.253 16.326 10.253 16.326l1.923-.42s-3.674-3.19-5.67-7.307c-1.268-2.62-2.093-6.28-2.02-8.6.217-5.96 4.59-2.16 4.59-2.16l-.808-7.54H75h-.002zM64.55 13.036s-10.524-2.963-6.326 10.184c3.803 11.92 11.083 12.857 11.083 12.857l1.68-.718s-3.668-2.22-5.932-5.57c-1.44-2.14-2.604-5.28-2.792-7.37-.495-5.4 3.873-2.76 3.873-2.76l-1.586-6.63zm36.546-9.427l.284 8.36s4.724-5.16 5.868 1.24c.446 2.49.11 6.65-.856 9.78-1.524 4.92-5.582 9.25-5.582 9.25h2.718s8.014-4.63 8.59-20.1c.632-17.06-11.022-8.54-11.022-8.54v.01z"></path><path fill="#002F86" d="M113.535 8.02l-.804 7.548s4.38-3.81 4.59 2.153c.08 2.33-.75 5.99-2.01 8.6-1.99 4.12-6.23 7.31-6.23 7.31l1.93.42s8.34-2.57 10.82-16.32c2.74-15.16-8.28-9.7-8.28-9.7"></path><path fill="#002F86" d="M123.99 13.035l-1.596 6.64s4.38-2.647 3.884 2.75c-.2 2.097-1.36 5.242-2.8 7.37-2.26 3.344-6.5 5.564-6.5 5.564l1.68.71s7.84-.94 11.65-12.86c4.19-13.15-6.33-10.18-6.33-10.18h-.01.022zM99.923 2.12c.027-.077-3.24-1.806-6.053-1.8h-.033C90.925.353 88.6 2.312 88.6 2.312c3.6 12.776 5.237 26.508 5.237 30.065l.006-5.425.002 5.425S96.508 12.26 99.923 2.12zM261.61 108.646V88.85h6.217v2.69c.418-.504.843-.958 1.274-1.36 1.28-1.174 2.69-1.76 4.22-1.76 2.1 0 3.69.604 4.78 1.81 1.09 1.206 1.65 2.96 1.65 5.26v13.157h-6.21v-12.51c0-.96-.21-1.738-.62-2.328-.41-.6-.97-.89-1.66-.89-.63 0-1.26.29-1.88.86s-1.13 1.36-1.53 2.35v12.51h-6.23zm93.228-9.857c0-3.07-.756-5.57-2.26-7.49-1.505-1.92-3.464-2.88-5.88-2.88-2.607 0-4.725.96-6.35 2.87s-2.438 4.41-2.438 7.47c0 3.26.81 5.79 2.438 7.59 1.62 1.8 3.9 2.7 6.84 2.7 1.26 0 2.4-.15 3.41-.43 1-.29 2.24-.82 3.72-1.6v-3.86c-1.03.65-1.94 1.12-2.71 1.37-.78.25-1.64.38-2.61.38-1.67 0-2.92-.53-3.74-1.58-.7-.92-1.1-2.19-1.21-3.79h10.77v-.82.02l.02.04zm-10.778-2.02c.097-1.44.287-2.52.566-3.23.42-.99 1.112-1.49 2.076-1.49.96 0 1.65.47 2.054 1.42.307.71.5 1.81.586 3.29h-5.284.002v.01zm-7.815-8.23h-8.44c-.543-.09-1.13-.15-1.76-.15-2.456 0-4.45.7-5.98 2.09s-2.292 3.21-2.292 5.44c0 2.22.768 4.02 2.298 5.4.45.39.93.74 1.43 1.04l-.86.35c-1.49.69-2.24 1.55-2.24 2.56 0 1.41.68 2.55 2.03 3.39l.09.04c-1.02.26-1.88.82-2.59 1.66-.7.84-1.06 1.74-1.06 2.69 0 1.49.88 2.75 2.62 3.78 1.75 1.03 3.88 1.55 6.41 1.55 3.48 0 6.08-.52 7.81-1.57 1.73-1.05 2.6-2.62 2.6-4.72 0-1.98-.66-3.43-1.98-4.33-1.31-.9-3.59-1.45-6.83-1.65-1.85-.13-3.06-.26-3.63-.41-.56-.14-.84-.39-.84-.73 0-.45.3-.83.9-1.13l.55-.25c-.13.07.13.07.8 0s1.55-.19 2.66-.36c1.62-.23 3.02-.82 4.15-1.74 1.53-1.26 2.3-2.89 2.3-4.91-.01-1.78-.4-3.31-1.17-4.57h3.11V88.5l-.03.016-.04.023zm-11.52 21.9c.897-.19 1.82-.24 2.765-.19l.67.04c.864.05 1.593.31 2.186.77.59.46.887.99.887 1.61 0 .71-.474 1.31-1.42 1.8-.948.48-2.103.73-3.47.73-1.183 0-2.185-.25-3.006-.75-.822-.5-1.232-1.11-1.232-1.84 0-.53.25-1.01.75-1.48.35-.32.973-.57 1.872-.75v.05zm3.486-10.98c-.44.67-1.1 1.01-1.99 1.01-.89 0-1.54-.34-1.99-1.02-.43-.68-.66-1.71-.66-3.08 0-1.4.23-2.43.67-3.11.45-.69 1.11-1.03 2-1.03.9 0 1.56.34 1.98 1.03.46.68.68 1.72.68 3.1 0 1.37-.21 2.39-.66 3.07h-.01l-.02.03zm-32.68 9.15V88.83h6.23v2.69c.42-.505.84-.96 1.28-1.36 1.29-1.174 2.69-1.76 4.23-1.76 2.1 0 3.69.603 4.78 1.81 1.1 1.206 1.65 2.96 1.65 5.26v13.156h-6.21v-12.51c0-.96-.21-1.74-.62-2.33-.42-.593-.97-.888-1.67-.888-.64 0-1.26.29-1.88.865s-1.12 1.36-1.53 2.348v12.52h-6.21l-.04-.01zm-11.16 0V88.83h6.21v19.797h-6.21l.01-.003-.01-.015zm3.11-29.27c-.93 0-1.71.32-2.35.96-.64.64-.96 1.42-.96 2.36 0 .93.33 1.72.97 2.36.65.64 1.43.95 2.36.95.94 0 1.72-.32 2.36-.96.65-.64.96-1.43.96-2.36 0-.93-.32-1.72-.96-2.36-.64-.64-1.42-.96-2.35-.96l-.01-.01-.01.01zm71.45 29.27V88.83h6.2v2.69c.42-.503.85-.958 1.28-1.36 1.29-1.174 2.69-1.76 4.23-1.76 2.09 0 3.69.604 4.78 1.81 1.09 1.206 1.64 2.96 1.64 5.26v13.155h-6.23V96.12c0-.96-.21-1.734-.62-2.326-.41-.59-.97-.885-1.66-.885-.63 0-1.26.29-1.88.86-.62.58-1.13 1.35-1.53 2.35v12.51h-6.22.03l-.02-.02zM255.02 91.28c-1.79-1.917-4.11-2.875-6.95-2.875-2.85 0-5.16.96-6.94 2.876-1.78 1.92-2.67 4.41-2.67 7.48 0 3.05.887 5.53 2.667 7.44 1.777 1.91 4.095 2.87 6.94 2.87 2.848 0 5.162-.96 6.95-2.86 1.783-1.91 2.683-4.39 2.683-7.44 0-3.06-.9-5.56-2.69-7.47v.01l.01-.03zm-4.55 11.794c-.53.955-1.33 1.433-2.4 1.433-1.07 0-1.87-.478-2.39-1.433-.52-.957-.79-2.4-.79-4.328 0-1.94.27-3.395.792-4.36.522-.966 1.32-1.442 2.39-1.442 1.064 0 1.863.48 2.4 1.445.532.96.8 2.41.8 4.35 0 1.93-.268 3.37-.8 4.33h-.006.004zm-28.16 5.552V88.834h5.75V96.2c.32-1.368.69-2.577 1.104-3.624 1.104-2.665 2.58-3.998 4.43-3.998 1.48-.014 2.64.384 3.476 1.19l-1.382 5.745c-.667-.82-1.54-1.233-2.612-1.233-1.268 0-2.312.903-3.136 2.71-.82 1.803-1.3 4.242-1.44 7.314v4.334h-6.215l.025-.012zm-2.53-20.096h-8.444c-.543-.087-1.13-.13-1.757-.13-2.46 0-4.45.7-5.98 2.1-1.53 1.4-2.3 3.213-2.3 5.448 0 2.217.76 4.02 2.29 5.4.44.395.92.74 1.42 1.048l-.88.35c-1.49.7-2.24 1.555-2.24 2.572 0 1.41.67 2.55 2.01 3.4l.08.04c-1.02.27-1.88.82-2.58 1.66-.7.85-1.05 1.74-1.05 2.69 0 1.49.87 2.76 2.62 3.79 1.74 1.03 3.88 1.54 6.4 1.54 3.48 0 6.08-.52 7.81-1.57 1.73-1.05 2.6-2.62 2.6-4.72 0-1.98-.65-3.43-1.97-4.33-1.32-.9-3.59-1.45-6.83-1.65-1.86-.13-3.06-.26-3.63-.41-.56-.14-.85-.39-.85-.74 0-.46.3-.83.9-1.13l.54-.25c-.14.07.13.07.8 0s1.56-.19 2.66-.35c1.63-.24 3.02-.82 4.16-1.74 1.54-1.27 2.31-2.9 2.31-4.92-.01-1.78-.4-3.31-1.17-4.58h3.1V88.5l.01-.02-.05.05zm-11.52 21.906c.897-.174 1.82-.233 2.763-.177l.67.04c.865.05 1.594.31 2.186.77.59.46.88.99.88 1.61 0 .71-.48 1.31-1.42 1.8-.95.48-2.11.73-3.47.73-1.19 0-2.19-.25-3.01-.75-.82-.5-1.23-1.11-1.23-1.84 0-.52.25-1.01.75-1.48.34-.32.97-.57 1.87-.75v-.01.05zm3.48-10.97c-.442.68-1.105 1.02-1.99 1.02-.89 0-1.553-.34-1.992-1.02-.446-.68-.668-1.705-.668-3.075 0-1.38.22-2.41.66-3.1.44-.68 1.1-1.02 1.99-1.02.89 0 1.54.34 1.98 1.03.45.68.67 1.73.67 3.11 0 1.37-.22 2.4-.66 3.08h-.01l.02-.02z"></path><path fill="#FFA400" d="M375.6 64.732c0-3.07-.824-5.565-2.474-7.486-1.65-1.92-3.796-2.88-6.44-2.88-2.857 0-5.173.96-6.955 2.875-1.77 1.92-2.66 4.41-2.66 7.48 0 3.26.9 5.8 2.67 7.6 1.78 1.81 4.28 2.71 7.5 2.71 1.4 0 2.65-.14 3.74-.42 1.11-.28 2.47-.81 4.08-1.59v-3.86c-1.12.67-2.11 1.13-2.96 1.38s-1.79.38-2.85.38c-1.83 0-3.19-.53-4.09-1.58-.76-.92-1.2-2.17-1.32-3.78h11.81v-.81l-.01.02-.04-.03zm-11.803-2.01c.107-1.438.314-2.514.62-3.225.46-.992 1.22-1.488 2.272-1.488 1.06 0 1.81.47 2.25 1.42.33.71.55 1.81.64 3.29h-5.79zm-18.026 11.87v-19.8h6.81v19.8h-6.81zm3.41-29.27c-1.02 0-1.88.32-2.58.963-.7.64-1.05 1.427-1.05 2.36s.35 1.72 1.05 2.36c.71.64 1.57.96 2.59.96 1.03 0 1.89-.32 2.59-.96.71-.64 1.07-1.427 1.07-2.36s-.35-1.72-1.05-2.36c-.7-.64-1.56-.96-2.58-.96h-.01l-.02-.002zm-7.54 28.285c-1.34.555-2.42.93-3.24 1.123s-1.7.29-2.66.29c-3.22 0-5.87-.954-7.89-2.862-2.02-1.91-3.03-4.39-3.03-7.444 0-3.065 1.02-5.557 3.05-7.473 2.03-1.91 4.67-2.87 7.91-2.87.92 0 1.77.1 2.54.28.78.19 1.79.54 3.05 1.05v4.59c-.87-.44-1.58-.74-2.13-.91-.54-.16-1.11-.24-1.69-.24-1.9 0-3.32.47-4.25 1.39-.93.93-1.4 2.33-1.4 4.2 0 1.86.47 3.25 1.4 4.17.94.92 2.36 1.38 4.25 1.38.68 0 1.31-.09 1.9-.27.59-.18 1.34-.5 2.26-.97v4.59h-.02l-.04-.02zm-40.8.985V54.794h6.81v2.69c.46-.503.93-.955 1.4-1.36 1.41-1.173 2.95-1.758 4.63-1.758 2.29 0 4.03.603 5.23 1.81 1.2 1.204 1.8 2.958 1.8 5.26V74.59h-6.81V62.08c0-.96-.23-1.737-.68-2.328-.45-.593-1.06-.89-1.82-.89-.69 0-1.39.29-2.06.87-.67.577-1.23 1.36-1.68 2.348v12.51h-6.8l-.02.002zm-12.22 0V54.794h6.81v19.798h-6.81zm3.41-29.268c-1.02 0-1.88.32-2.59.96-.69.642-1.05 1.428-1.05 2.36 0 .934.36 1.72 1.05 2.36.71.642 1.57.962 2.59.962 1.03 0 1.9-.32 2.6-.96.7-.64 1.06-1.428 1.06-2.36 0-.934-.35-1.72-1.05-2.36-.7-.642-1.56-.962-2.58-.962h-.02zm-27.42 9.47h6.49l4.45 10.585h.02l3.94-10.59h6.4l-8.69 20.23h-3.52l-9.09-20.23h.01zm-2.42 2.448c-1.95-1.917-4.48-2.876-7.6-2.876s-5.65.96-7.6 2.875c-1.95 1.92-2.92 4.41-2.92 7.48 0 3.05.98 5.54 2.93 7.44 1.95 1.91 4.49 2.86 7.6 2.86 3.13 0 5.66-.95 7.62-2.86s2.94-4.39 2.94-7.44c0-3.06-.97-5.56-2.93-7.48l-.01.02-.02-.01zm-4.96 11.783c-.58.955-1.46 1.433-2.63 1.433-1.16 0-2.04-.483-2.6-1.44-.58-.953-.87-2.4-.87-4.326 0-1.94.29-3.39.87-4.36.58-.96 1.45-1.45 2.61-1.45 1.17 0 2.06.48 2.64 1.45.58.96.87 2.42.87 4.36 0 1.93-.29 3.37-.87 4.33v.02l-.01-.017zM227.3 74.56V54.767h6.325v7.365c.353-1.37.757-2.57 1.212-3.62 1.205-2.67 2.82-4 4.848-4 1.62-.01 2.89.38 3.806 1.19l-1.51 5.75c-.73-.82-1.69-1.23-2.86-1.23-1.39 0-2.53.9-3.43 2.71-.89 1.81-1.42 4.25-1.57 7.32v4.34h-6.82.02l-.01-.03zm-6.886-17.347c-1.61-1.917-3.697-2.878-6.263-2.878-1.88 0-3.68.722-5.4 2.167v-1.74h-6.81v29.18h6.78V72.915c1.67 1.365 3.47 2.06 5.4 2.07 2.56 0 4.64-.955 6.26-2.866 1.61-1.92 2.41-4.4 2.41-7.45 0-3.07-.81-5.56-2.42-7.48l.03.02.02-.01zm-5.57 11.59c-.604.934-1.508 1.4-2.72 1.4-1.145 0-2.114-.422-2.91-1.258-.16-.21-.324-.393-.506-.547v-7.45l.643-.82c.8-.83 1.72-1.25 2.78-1.25 1.21 0 2.12.47 2.72 1.41.61.94.91 2.36.91 4.25s-.3 3.312-.91 4.24h.01l-.01.025z"></path></g></svg>