<?xml version="1.0" encoding="UTF-8"?>
<svg id="Laag_1" data-name="Laag 1" xmlns="http://www.w3.org/2000/svg" viewBox="0 0 2169.19 909.96">
  <defs>
    <style>
      .cls-1 {
        fill: #fff;
      }

      .cls-2 {
        fill: #9bd63e;
      }
    </style>
  </defs>
  <g>
    <path class="cls-1" d="m245.63,637.34c-8.73,0-16.77-1.81-24.14-5.41-7.37-3.61-11.05-9.02-11.05-16.24v-286.95c0-7.51,3.68-12.93,11.05-16.24,7.37-3.31,15.41-4.96,24.14-4.96s16.76,1.66,24.14,4.96c7.37,3.31,11.05,8.73,11.05,16.24v286.95c0,7.22-3.69,12.63-11.05,16.24-7.37,3.61-15.42,5.41-24.14,5.41Z"/>
    <path class="cls-1" d="m360.23,637.34c-10.23,0-18.58-2.26-25.04-6.77-6.47-4.51-9.7-9.47-9.7-14.89v-171.9c0-6.32,3.23-11.43,9.7-15.34,6.46-3.91,14.81-5.87,25.04-5.87,8.42,0,15.64,1.96,21.66,5.87,6.01,3.91,9.02,9.02,9.02,15.34v10.38c4.21-8.72,11.58-16.62,22.11-23.69,10.53-7.06,23.31-10.6,38.35-10.6,13.83,0,26.54,4.29,38.13,12.86,11.58,8.57,20.9,20.01,27.97,34.29,7.06,14.29,10.6,30.16,10.6,47.6v101.07c0,7.22-3.69,12.63-11.05,16.24-7.37,3.61-15.42,5.41-24.14,5.41-8.12,0-15.95-1.81-23.46-5.41-7.52-3.61-11.28-9.02-11.28-16.24v-101.07c0-5.71-1.43-11.12-4.29-16.24-2.86-5.11-6.77-9.32-11.73-12.63-4.96-3.31-10.45-4.96-16.47-4.96-4.82,0-9.55,1.35-14.21,4.06-4.67,2.71-8.5,6.54-11.51,11.51-3.01,4.96-4.51,11.05-4.51,18.27v101.07c0,5.41-3.46,10.38-10.38,14.89-6.92,4.51-15.19,6.77-24.82,6.77Z"/>
    <path class="cls-1" d="m601.16,637.34c-10.23,0-18.58-2.26-25.04-6.77-6.47-4.51-9.7-9.47-9.7-14.89v-171.9c0-6.32,3.23-11.43,9.7-15.34,6.46-3.91,14.81-5.87,25.04-5.87,8.42,0,15.64,1.96,21.66,5.87,6.01,3.91,9.02,9.02,9.02,15.34v10.38c4.21-8.72,11.58-16.62,22.11-23.69,10.52-7.06,23.31-10.6,38.35-10.6,13.83,0,26.54,4.29,38.12,12.86,11.58,8.57,20.9,20.01,27.97,34.29,7.06,14.29,10.6,30.16,10.6,47.6v101.07c0,7.22-3.69,12.63-11.05,16.24-7.37,3.61-15.42,5.41-24.14,5.41-8.12,0-15.95-1.81-23.46-5.41-7.52-3.61-11.28-9.02-11.28-16.24v-101.07c0-5.71-1.43-11.12-4.29-16.24-2.86-5.11-6.77-9.32-11.73-12.63-4.96-3.31-10.45-4.96-16.47-4.96-4.82,0-9.55,1.35-14.21,4.06-4.67,2.71-8.5,6.54-11.51,11.51-3.01,4.96-4.51,11.05-4.51,18.27v101.07c0,5.41-3.46,10.38-10.38,14.89-6.92,4.51-15.19,6.77-24.82,6.77Z"/>
    <path class="cls-1" d="m901.65,641.85c-18.35,0-35.27-4.44-50.76-13.31-15.5-8.87-27.97-20.6-37.45-35.19-9.47-14.59-14.21-30.3-14.21-47.15v-31.58c0-16.84,4.58-32.49,13.76-46.92,9.17-14.44,21.58-26.01,37.22-34.74,15.64-8.72,32.78-13.08,51.43-13.08s35.34,4.29,50.98,12.86c15.64,8.57,28.2,20.01,37.67,34.29,9.47,14.29,14.21,30.16,14.21,47.6v31.58c0,16.55-4.74,32.11-14.21,46.7-9.48,14.59-22.04,26.39-37.67,35.42-15.64,9.02-32.64,13.54-50.98,13.54Zm0-60.91c6.01,0,11.51-1.65,16.47-4.96,4.96-3.31,8.95-7.59,11.96-12.86,3-5.26,4.51-10.9,4.51-16.92v-31.58c0-5.71-1.51-11.12-4.51-16.24-3.01-5.11-6.99-9.32-11.96-12.63-4.96-3.31-10.45-4.96-16.47-4.96s-11.51,1.66-16.47,4.96c-4.96,3.31-8.88,7.52-11.73,12.63-2.86,5.12-4.29,10.53-4.29,16.24v31.58c0,6.02,1.42,11.66,4.29,16.92,2.86,5.27,6.77,9.55,11.73,12.86,4.96,3.31,10.45,4.96,16.47,4.96Z"/>
    <path class="cls-1" d="m1124.53,637.34c-28.58,0-50.46-6.09-65.65-18.27-15.19-12.18-22.78-31.51-22.78-57.98v-210.7c0-6.32,3.76-11.43,11.28-15.34,7.51-3.91,15.34-5.87,23.46-5.87,8.72,0,16.76,1.96,24.14,5.87,7.37,3.91,11.05,9.02,11.05,15.34v72.19h50.98c5.71,0,10,2.64,12.86,7.9,2.86,5.27,4.29,10.91,4.29,16.92,0,6.32-1.43,12.03-4.29,17.14-2.86,5.12-7.15,7.67-12.86,7.67h-50.98v88.88c0,6.62,1.35,11.21,4.06,13.76,2.71,2.56,7.52,3.83,14.44,3.83h19.4c10.22,0,17.74,3.09,22.56,9.25,4.81,6.17,7.22,12.86,7.22,20.08s-2.41,14.29-7.22,20.3c-4.81,6.02-12.34,9.02-22.56,9.02h-19.4Z"/>
    <path class="cls-1" d="m1293.27,641.85c-18.35,0-35.27-4.44-50.76-13.31-15.5-8.87-27.97-20.6-37.45-35.19-9.48-14.59-14.21-30.3-14.21-47.15v-31.58c0-16.84,4.58-32.49,13.76-46.92,9.17-14.44,21.58-26.01,37.22-34.74,15.64-8.72,32.78-13.08,51.44-13.08s35.34,4.29,50.98,12.86c15.64,8.57,28.2,20.01,37.67,34.29,9.47,14.29,14.21,30.16,14.21,47.6v31.58c0,16.55-4.74,32.11-14.21,46.7-9.48,14.59-22.04,26.39-37.67,35.42-15.64,9.02-32.64,13.54-50.98,13.54Zm0-60.91c6.01,0,11.51-1.65,16.47-4.96,4.96-3.31,8.95-7.59,11.96-12.86,3-5.26,4.51-10.9,4.51-16.92v-31.58c0-5.71-1.51-11.12-4.51-16.24-3.01-5.11-6.99-9.32-11.96-12.63-4.96-3.31-10.45-4.96-16.47-4.96s-11.51,1.66-16.47,4.96c-4.96,3.31-8.88,7.52-11.73,12.63-2.86,5.12-4.29,10.53-4.29,16.24v31.58c0,6.02,1.42,11.66,4.29,16.92,2.86,5.27,6.77,9.55,11.73,12.86,4.96,3.31,10.45,4.96,16.47,4.96Z"/>
    <path class="cls-1" d="m1463.36,735.25c-9.93,0-18.12-2.26-24.59-6.77-6.47-4.51-9.7-9.48-9.7-14.89v-269.81c0-6.32,3.23-11.43,9.7-15.34,6.47-3.91,14.36-5.87,23.69-5.87s16.99,1.96,23.01,5.87c6.01,3.91,9.02,9.02,9.02,15.34v10.38c5.11-8.72,13.01-16.62,23.69-23.69,10.67-7.06,23.08-10.6,37.22-10.6,15.34,0,29.1,4.29,41.28,12.86,12.18,8.57,21.81,20.01,28.88,34.29,7.06,14.29,10.6,30.16,10.6,47.6v31.58c0,16.55-3.61,32.11-10.83,46.7-7.22,14.59-16.77,26.39-28.65,35.42-11.89,9.02-24.89,13.54-39.03,13.54-13.24,0-25.27-3.69-36.09-11.05-10.83-7.37-18.35-15.71-22.56-25.04v107.83c0,5.41-3.46,10.38-10.38,14.89-6.92,4.51-15.34,6.77-25.27,6.77Zm69.48-154.31c6.01,0,11.51-1.65,16.47-4.96,4.96-3.31,9.02-7.67,12.18-13.08s4.74-10.98,4.74-16.69v-31.58c0-5.71-1.51-11.12-4.51-16.24-3.01-5.11-7.15-9.32-12.41-12.63-5.27-3.31-11.05-4.96-17.37-4.96-5.41,0-10.6,1.35-15.57,4.06-4.96,2.71-9.1,6.54-12.41,11.51-3.31,4.96-4.96,11.05-4.96,18.27v37.45c0,2.41,1.42,5.94,4.29,10.6,2.86,4.67,6.84,8.88,11.96,12.63,5.11,3.76,10.98,5.64,17.6,5.64Z"/>
    <path class="cls-1" d="m1703.84,637.34c-10.23,0-18.58-2.26-25.04-6.77-6.47-4.51-9.7-9.47-9.7-14.89v-171.9c0-6.32,3.23-11.43,9.7-15.34,6.47-3.91,14.81-5.87,25.04-5.87,9.62,0,17.89,1.96,24.82,5.87,6.92,3.91,10.38,9.02,10.38,15.34v171.9c0,5.41-3.46,10.38-10.38,14.89-6.92,4.51-15.19,6.77-24.82,6.77Z"/>
    <path class="cls-1" d="m1824.75,641.85c-15.64,0-29.18-4.89-40.61-14.66-11.43-9.77-17.14-24.89-17.14-45.34,0-17.74,4.51-31.58,13.54-41.51s21.43-16.84,37.22-20.75c15.79-3.91,34.06-5.87,54.82-5.87h16.24v-4.51c0-5.11-1.06-10.22-3.16-15.34-2.11-5.11-5.57-9.4-10.38-12.86-4.81-3.45-11.58-5.19-20.3-5.19-12.34,0-21.51,1.21-27.52,3.61-6.02,2.41-10.68,4.89-13.99,7.44-3.31,2.56-7.07,3.83-11.28,3.83-7.52,0-13.31-3.76-17.37-11.28-4.06-7.52-6.09-15.34-6.09-23.46,0-7.22,4.13-13.54,12.41-18.95,8.27-5.41,18.34-9.62,30.23-12.63,11.88-3,23.38-4.51,34.52-4.51,24.66,0,44.51,4.22,59.56,12.63,15.04,8.42,26.01,19.33,32.94,32.71,6.92,13.39,10.38,27.75,10.38,43.09v107.38c0,6.02-3.24,11.13-9.7,15.34-6.47,4.22-14.66,6.32-24.59,6.32-8.73,0-16.09-2.1-22.11-6.32-6.02-4.21-9.02-9.32-9.02-15.34v-9.93c-8.12,9.33-17.6,17.67-28.42,25.04-10.83,7.37-24.22,11.05-40.16,11.05Zm30.23-50.98c4.81,0,9.77-1.88,14.89-5.64,5.11-3.76,9.55-8.8,13.31-15.12,3.76-6.32,5.64-13.23,5.64-20.75v-1.81h-1.8c-8.42,0-16.47.53-24.14,1.58-7.67,1.06-13.84,3.31-18.5,6.77-4.67,3.46-6.99,8.8-6.99,16.02,0,6.62,1.65,11.43,4.96,14.44,3.31,3.01,7.51,4.51,12.63,4.51Z"/>
  </g>
  <rect class="cls-2" x="1578.35" y="224.51" width="74.39" height="74.39" rx="37.2" ry="37.2"/>
  <rect class="cls-2" x="1666.87" y="135.99" width="74.39" height="74.39" rx="37.2" ry="37.2"/>
  <rect class="cls-2" x="1755.39" y="224.51" width="74.39" height="74.39" rx="37.2" ry="37.2"/>
  <rect class="cls-1" x="1666.87" y="313.04" width="74.39" height="74.39" rx="37.2" ry="37.2"/>
</svg>